<svg width="139" height="157" viewBox="0 0 139 157" fill="none" xmlns="http://www.w3.org/2000/svg">
<path d="M39 93.9987C39 59.2048 79.5 30.9987 89 30.9987C116.614 30.9987 139 59.2048 139 93.9987C139 128.793 116.614 156.999 89 156.999C56 156.999 39 128.793 39 93.9987Z" fill="#CF0202"/>
<path d="M0 93.9987C0 59.2048 22.3858 30.9987 50 30.9987C61 30.9987 100 59.2048 100 93.9987C100 128.793 83.5 156.726 50 156.999C22.3867 157.223 0 128.793 0 93.9987Z" fill="#CF0202"/>
<path d="M69.4722 24.812L90.1533 0L91.3226 19.4847L68.0318 46.1851L69.4722 24.812Z" fill="#04B22A"/>
</svg>
